<mxfile host="app.diagrams.net" modified="2024-01-05T22:19:09.399Z" agent="Mozilla/5.0 (Windows NT 10.0; Win64; x64) AppleWebKit/537.36 (KHTML, like Gecko) Chrome/120.0.0.0 Safari/537.36" etag="Ujq-ywke9TAFolrf7Kpz" version="22.1.15" type="device">
  <diagram id="C5RBs43oDa-KdzZeNtuy" name="Page-1">
    <mxGraphModel dx="1434" dy="746" grid="1" gridSize="10" guides="1" tooltips="1" connect="1" arrows="1" fold="1" page="1" pageScale="1" pageWidth="827" pageHeight="1169" math="0" shadow="0">
      <root>
        <mxCell id="WIyWlLk6GJQsqaUBKTNV-0" />
        <mxCell id="WIyWlLk6GJQsqaUBKTNV-1" parent="WIyWlLk6GJQsqaUBKTNV-0" />
        <mxCell id="6lOjXnUwQoetxySEbgue-17" value="" style="whiteSpace=wrap;html=1;fillColor=#dae8fc;strokeColor=#6c8ebf;" vertex="1" parent="WIyWlLk6GJQsqaUBKTNV-1">
          <mxGeometry x="10" y="1169" width="880" height="920" as="geometry" />
        </mxCell>
        <mxCell id="6lOjXnUwQoetxySEbgue-12" value="" style="whiteSpace=wrap;html=1;fillColor=#d5e8d4;strokeColor=#82b366;" vertex="1" parent="WIyWlLk6GJQsqaUBKTNV-1">
          <mxGeometry x="20" y="80" width="880" height="940" as="geometry" />
        </mxCell>
        <mxCell id="6lOjXnUwQoetxySEbgue-0" value="Create Customer&lt;br&gt;[/customers/create]" style="rounded=1;whiteSpace=wrap;html=1;fontSize=12;glass=0;strokeWidth=1;shadow=0;" vertex="1" parent="WIyWlLk6GJQsqaUBKTNV-1">
          <mxGeometry x="40" y="160" width="120" height="85" as="geometry" />
        </mxCell>
        <mxCell id="6lOjXnUwQoetxySEbgue-1" value="Add Product to Customer&lt;br&gt;[/customers/addProduct]" style="rounded=1;whiteSpace=wrap;html=1;fontSize=12;glass=0;strokeWidth=1;shadow=0;" vertex="1" parent="WIyWlLk6GJQsqaUBKTNV-1">
          <mxGeometry x="240" y="160" width="240" height="85" as="geometry" />
        </mxCell>
        <mxCell id="6lOjXnUwQoetxySEbgue-2" value="Check Customer&#39;s cart items&lt;br&gt;[/customers/:id]" style="rounded=1;whiteSpace=wrap;html=1;fontSize=12;glass=0;strokeWidth=1;shadow=0;" vertex="1" parent="WIyWlLk6GJQsqaUBKTNV-1">
          <mxGeometry x="570" y="162.5" width="240" height="80" as="geometry" />
        </mxCell>
        <mxCell id="6lOjXnUwQoetxySEbgue-3" value="Create Order ID&lt;br&gt;[/orders/create]" style="rounded=1;whiteSpace=wrap;html=1;fontSize=12;glass=0;strokeWidth=1;shadow=0;" vertex="1" parent="WIyWlLk6GJQsqaUBKTNV-1">
          <mxGeometry x="30" y="1259" width="120" height="80" as="geometry" />
        </mxCell>
        <mxCell id="6lOjXnUwQoetxySEbgue-4" value="Add Product to Order&lt;br&gt;[/orders/addProductToOrder/:orderId/:productId]" style="rounded=1;whiteSpace=wrap;html=1;fontSize=12;glass=0;strokeWidth=1;shadow=0;" vertex="1" parent="WIyWlLk6GJQsqaUBKTNV-1">
          <mxGeometry x="220" y="1259" width="280" height="80" as="geometry" />
        </mxCell>
        <mxCell id="6lOjXnUwQoetxySEbgue-5" value="Check Customer&#39;s order items&lt;br&gt;[/orders/customer/:customerId/order/:orderId/products]" style="rounded=1;whiteSpace=wrap;html=1;fontSize=12;glass=0;strokeWidth=1;shadow=0;" vertex="1" parent="WIyWlLk6GJQsqaUBKTNV-1">
          <mxGeometry x="580" y="1259" width="300" height="80" as="geometry" />
        </mxCell>
        <mxCell id="6lOjXnUwQoetxySEbgue-6" value="Find Order ID by Customer&#39;s First Name&lt;br&gt;[/orders/customer/:firstName]" style="rounded=1;whiteSpace=wrap;html=1;fontSize=12;glass=0;strokeWidth=1;shadow=0;" vertex="1" parent="WIyWlLk6GJQsqaUBKTNV-1">
          <mxGeometry x="320" y="1379" width="280" height="80" as="geometry" />
        </mxCell>
        <mxCell id="6lOjXnUwQoetxySEbgue-7" value="Find Customer Name by Order ID&lt;br&gt;[/orders/:id]" style="rounded=1;whiteSpace=wrap;html=1;fontSize=12;glass=0;strokeWidth=1;shadow=0;" vertex="1" parent="WIyWlLk6GJQsqaUBKTNV-1">
          <mxGeometry x="320" y="1499" width="280" height="80" as="geometry" />
        </mxCell>
        <mxCell id="6lOjXnUwQoetxySEbgue-8" value="Find All Orders&lt;br&gt;[/orders]" style="rounded=1;whiteSpace=wrap;html=1;fontSize=12;glass=0;strokeWidth=1;shadow=0;" vertex="1" parent="WIyWlLk6GJQsqaUBKTNV-1">
          <mxGeometry x="320" y="1619" width="280" height="80" as="geometry" />
        </mxCell>
        <mxCell id="6lOjXnUwQoetxySEbgue-9" value="Find Customer Info by First Name&lt;br&gt;[/customers/search/firstName/{firstName}]" style="rounded=1;whiteSpace=wrap;html=1;fontSize=12;glass=0;strokeWidth=1;shadow=0;" vertex="1" parent="WIyWlLk6GJQsqaUBKTNV-1">
          <mxGeometry x="400" y="280" width="280" height="80" as="geometry" />
        </mxCell>
        <mxCell id="6lOjXnUwQoetxySEbgue-10" value="Find Customer By ID&lt;br&gt;[/customers/search/:id]" style="rounded=1;whiteSpace=wrap;html=1;fontSize=12;glass=0;strokeWidth=1;shadow=0;" vertex="1" parent="WIyWlLk6GJQsqaUBKTNV-1">
          <mxGeometry x="400" y="400" width="280" height="80" as="geometry" />
        </mxCell>
        <mxCell id="6lOjXnUwQoetxySEbgue-11" value="Find All Customers&lt;br&gt;[/customers]" style="rounded=1;whiteSpace=wrap;html=1;fontSize=12;glass=0;strokeWidth=1;shadow=0;" vertex="1" parent="WIyWlLk6GJQsqaUBKTNV-1">
          <mxGeometry x="400" y="520" width="280" height="80" as="geometry" />
        </mxCell>
        <mxCell id="6lOjXnUwQoetxySEbgue-13" value="&lt;b&gt;&lt;font style=&quot;font-size: 25px;&quot;&gt;CART SERVICE&lt;/font&gt;&lt;/b&gt;" style="text;strokeColor=none;align=center;fillColor=none;html=1;verticalAlign=middle;whiteSpace=wrap;rounded=0;" vertex="1" parent="WIyWlLk6GJQsqaUBKTNV-1">
          <mxGeometry x="130" y="90" width="220" height="30" as="geometry" />
        </mxCell>
        <mxCell id="6lOjXnUwQoetxySEbgue-14" value="" style="edgeStyle=none;orthogonalLoop=1;jettySize=auto;html=1;rounded=0;shape=flexArrow;endWidth=8;endSize=10;" edge="1" parent="WIyWlLk6GJQsqaUBKTNV-1">
          <mxGeometry width="80" relative="1" as="geometry">
            <mxPoint x="170" y="202" as="sourcePoint" />
            <mxPoint x="230" y="202" as="targetPoint" />
            <Array as="points" />
          </mxGeometry>
        </mxCell>
        <mxCell id="6lOjXnUwQoetxySEbgue-15" value="" style="edgeStyle=none;orthogonalLoop=1;jettySize=auto;html=1;rounded=0;shape=flexArrow;endWidth=8;endSize=10;" edge="1" parent="WIyWlLk6GJQsqaUBKTNV-1">
          <mxGeometry width="80" relative="1" as="geometry">
            <mxPoint x="500" y="202" as="sourcePoint" />
            <mxPoint x="560" y="202" as="targetPoint" />
            <Array as="points" />
          </mxGeometry>
        </mxCell>
        <mxCell id="6lOjXnUwQoetxySEbgue-16" value="" style="edgeStyle=none;orthogonalLoop=1;jettySize=auto;html=1;rounded=0;shape=flexArrow;endWidth=8;endSize=10;" edge="1" parent="WIyWlLk6GJQsqaUBKTNV-1">
          <mxGeometry width="80" relative="1" as="geometry">
            <mxPoint x="160" y="1298.5" as="sourcePoint" />
            <mxPoint x="220" y="1298.5" as="targetPoint" />
            <Array as="points" />
          </mxGeometry>
        </mxCell>
        <mxCell id="6lOjXnUwQoetxySEbgue-18" value="&lt;b&gt;&lt;font style=&quot;font-size: 25px;&quot;&gt;ORDER SERVICE&lt;/font&gt;&lt;/b&gt;" style="text;strokeColor=none;align=center;fillColor=none;html=1;verticalAlign=middle;whiteSpace=wrap;rounded=0;" vertex="1" parent="WIyWlLk6GJQsqaUBKTNV-1">
          <mxGeometry x="160" y="1189" width="220" height="30" as="geometry" />
        </mxCell>
        <mxCell id="6lOjXnUwQoetxySEbgue-19" value="" style="edgeStyle=none;orthogonalLoop=1;jettySize=auto;html=1;rounded=0;shape=flexArrow;endWidth=8;endSize=10;" edge="1" parent="WIyWlLk6GJQsqaUBKTNV-1">
          <mxGeometry width="80" relative="1" as="geometry">
            <mxPoint x="510" y="1298.5" as="sourcePoint" />
            <mxPoint x="570" y="1298.5" as="targetPoint" />
            <Array as="points" />
          </mxGeometry>
        </mxCell>
        <mxCell id="6lOjXnUwQoetxySEbgue-20" value="" style="edgeStyle=none;orthogonalLoop=1;jettySize=auto;html=1;rounded=0;exitX=0.071;exitY=1;exitDx=0;exitDy=0;exitPerimeter=0;" edge="1" parent="WIyWlLk6GJQsqaUBKTNV-1" source="6lOjXnUwQoetxySEbgue-4">
          <mxGeometry width="80" relative="1" as="geometry">
            <mxPoint x="290" y="1469" as="sourcePoint" />
            <mxPoint x="320" y="1429" as="targetPoint" />
            <Array as="points">
              <mxPoint x="240" y="1429" />
            </Array>
          </mxGeometry>
        </mxCell>
        <mxCell id="6lOjXnUwQoetxySEbgue-21" value="" style="edgeStyle=none;orthogonalLoop=1;jettySize=auto;html=1;rounded=0;exitX=0.071;exitY=1;exitDx=0;exitDy=0;exitPerimeter=0;" edge="1" parent="WIyWlLk6GJQsqaUBKTNV-1" target="6lOjXnUwQoetxySEbgue-7">
          <mxGeometry width="80" relative="1" as="geometry">
            <mxPoint x="240" y="1349" as="sourcePoint" />
            <mxPoint x="320" y="1439" as="targetPoint" />
            <Array as="points">
              <mxPoint x="240" y="1539" />
            </Array>
          </mxGeometry>
        </mxCell>
        <mxCell id="6lOjXnUwQoetxySEbgue-22" value="" style="edgeStyle=none;orthogonalLoop=1;jettySize=auto;html=1;rounded=0;exitX=0.071;exitY=1;exitDx=0;exitDy=0;exitPerimeter=0;entryX=0;entryY=0.375;entryDx=0;entryDy=0;entryPerimeter=0;" edge="1" parent="WIyWlLk6GJQsqaUBKTNV-1" target="6lOjXnUwQoetxySEbgue-8">
          <mxGeometry width="80" relative="1" as="geometry">
            <mxPoint x="240" y="1369" as="sourcePoint" />
            <mxPoint x="320" y="1559" as="targetPoint" />
            <Array as="points">
              <mxPoint x="240" y="1649" />
            </Array>
          </mxGeometry>
        </mxCell>
        <mxCell id="6lOjXnUwQoetxySEbgue-23" value="Associated services" style="text;strokeColor=none;align=center;fillColor=none;html=1;verticalAlign=middle;whiteSpace=wrap;rounded=0;rotation=-90;" vertex="1" parent="WIyWlLk6GJQsqaUBKTNV-1">
          <mxGeometry x="140" y="1469" width="140" height="30" as="geometry" />
        </mxCell>
        <mxCell id="6lOjXnUwQoetxySEbgue-24" value="Find All Products&lt;br&gt;[/products]" style="rounded=1;whiteSpace=wrap;html=1;fontSize=12;glass=0;strokeWidth=1;shadow=0;" vertex="1" parent="WIyWlLk6GJQsqaUBKTNV-1">
          <mxGeometry x="320" y="1739" width="280" height="80" as="geometry" />
        </mxCell>
        <mxCell id="6lOjXnUwQoetxySEbgue-25" value="Find Product by Category Name&lt;br&gt;[/products/search/category/:categoryName]" style="rounded=1;whiteSpace=wrap;html=1;fontSize=12;glass=0;strokeWidth=1;shadow=0;" vertex="1" parent="WIyWlLk6GJQsqaUBKTNV-1">
          <mxGeometry x="320" y="1859" width="280" height="80" as="geometry" />
        </mxCell>
        <mxCell id="6lOjXnUwQoetxySEbgue-26" value="Find Product by ID&lt;br&gt;[/products/search/:id]" style="rounded=1;whiteSpace=wrap;html=1;fontSize=12;glass=0;strokeWidth=1;shadow=0;" vertex="1" parent="WIyWlLk6GJQsqaUBKTNV-1">
          <mxGeometry x="320" y="1979" width="280" height="80" as="geometry" />
        </mxCell>
        <mxCell id="6lOjXnUwQoetxySEbgue-27" value="" style="edgeStyle=none;orthogonalLoop=1;jettySize=auto;html=1;rounded=0;exitX=0.071;exitY=1;exitDx=0;exitDy=0;exitPerimeter=0;entryX=0;entryY=0.375;entryDx=0;entryDy=0;entryPerimeter=0;" edge="1" parent="WIyWlLk6GJQsqaUBKTNV-1">
          <mxGeometry width="80" relative="1" as="geometry">
            <mxPoint x="240" y="1499" as="sourcePoint" />
            <mxPoint x="320" y="1779" as="targetPoint" />
            <Array as="points">
              <mxPoint x="240" y="1779" />
            </Array>
          </mxGeometry>
        </mxCell>
        <mxCell id="6lOjXnUwQoetxySEbgue-28" value="" style="edgeStyle=none;orthogonalLoop=1;jettySize=auto;html=1;rounded=0;exitX=0.071;exitY=1;exitDx=0;exitDy=0;exitPerimeter=0;entryX=0;entryY=0.375;entryDx=0;entryDy=0;entryPerimeter=0;" edge="1" parent="WIyWlLk6GJQsqaUBKTNV-1">
          <mxGeometry width="80" relative="1" as="geometry">
            <mxPoint x="240" y="1629" as="sourcePoint" />
            <mxPoint x="320" y="1909" as="targetPoint" />
            <Array as="points">
              <mxPoint x="240" y="1909" />
            </Array>
          </mxGeometry>
        </mxCell>
        <mxCell id="6lOjXnUwQoetxySEbgue-29" value="" style="edgeStyle=none;orthogonalLoop=1;jettySize=auto;html=1;rounded=0;exitX=0.071;exitY=1;exitDx=0;exitDy=0;exitPerimeter=0;entryX=0;entryY=0.375;entryDx=0;entryDy=0;entryPerimeter=0;" edge="1" parent="WIyWlLk6GJQsqaUBKTNV-1">
          <mxGeometry width="80" relative="1" as="geometry">
            <mxPoint x="240" y="1749" as="sourcePoint" />
            <mxPoint x="320" y="2029" as="targetPoint" />
            <Array as="points">
              <mxPoint x="240" y="2029" />
            </Array>
          </mxGeometry>
        </mxCell>
        <mxCell id="6lOjXnUwQoetxySEbgue-30" value="Find All Products&lt;br&gt;[/products]" style="rounded=1;whiteSpace=wrap;html=1;fontSize=12;glass=0;strokeWidth=1;shadow=0;" vertex="1" parent="WIyWlLk6GJQsqaUBKTNV-1">
          <mxGeometry x="400" y="640" width="280" height="80" as="geometry" />
        </mxCell>
        <mxCell id="6lOjXnUwQoetxySEbgue-31" value="Find Product by Category Name&lt;br&gt;[/products/search/category/:categoryName]" style="rounded=1;whiteSpace=wrap;html=1;fontSize=12;glass=0;strokeWidth=1;shadow=0;" vertex="1" parent="WIyWlLk6GJQsqaUBKTNV-1">
          <mxGeometry x="400" y="760" width="280" height="80" as="geometry" />
        </mxCell>
        <mxCell id="6lOjXnUwQoetxySEbgue-32" value="Find Product by ID&lt;br&gt;[/products/search/:id]" style="rounded=1;whiteSpace=wrap;html=1;fontSize=12;glass=0;strokeWidth=1;shadow=0;" vertex="1" parent="WIyWlLk6GJQsqaUBKTNV-1">
          <mxGeometry x="400" y="880" width="280" height="80" as="geometry" />
        </mxCell>
        <mxCell id="6lOjXnUwQoetxySEbgue-33" value="Associated services" style="text;strokeColor=none;align=center;fillColor=none;html=1;verticalAlign=middle;whiteSpace=wrap;rounded=0;rotation=-90;" vertex="1" parent="WIyWlLk6GJQsqaUBKTNV-1">
          <mxGeometry x="150" y="510" width="140" height="30" as="geometry" />
        </mxCell>
        <mxCell id="6lOjXnUwQoetxySEbgue-34" value="" style="edgeStyle=none;orthogonalLoop=1;jettySize=auto;html=1;rounded=0;exitX=0.071;exitY=1;exitDx=0;exitDy=0;exitPerimeter=0;entryX=0;entryY=0.5;entryDx=0;entryDy=0;" edge="1" parent="WIyWlLk6GJQsqaUBKTNV-1" target="6lOjXnUwQoetxySEbgue-10">
          <mxGeometry width="80" relative="1" as="geometry">
            <mxPoint x="270" y="245" as="sourcePoint" />
            <mxPoint x="350" y="525" as="targetPoint" />
            <Array as="points">
              <mxPoint x="270" y="440" />
            </Array>
          </mxGeometry>
        </mxCell>
        <mxCell id="6lOjXnUwQoetxySEbgue-35" value="" style="edgeStyle=none;orthogonalLoop=1;jettySize=auto;html=1;rounded=0;exitX=0.071;exitY=1;exitDx=0;exitDy=0;exitPerimeter=0;entryX=0;entryY=0.5;entryDx=0;entryDy=0;" edge="1" parent="WIyWlLk6GJQsqaUBKTNV-1">
          <mxGeometry width="80" relative="1" as="geometry">
            <mxPoint x="270" y="370" as="sourcePoint" />
            <mxPoint x="400" y="565" as="targetPoint" />
            <Array as="points">
              <mxPoint x="270" y="565" />
            </Array>
          </mxGeometry>
        </mxCell>
        <mxCell id="6lOjXnUwQoetxySEbgue-36" value="" style="edgeStyle=none;orthogonalLoop=1;jettySize=auto;html=1;rounded=0;exitX=0.071;exitY=1;exitDx=0;exitDy=0;exitPerimeter=0;entryX=0;entryY=0.5;entryDx=0;entryDy=0;" edge="1" parent="WIyWlLk6GJQsqaUBKTNV-1">
          <mxGeometry width="80" relative="1" as="geometry">
            <mxPoint x="270" y="480" as="sourcePoint" />
            <mxPoint x="400" y="675" as="targetPoint" />
            <Array as="points">
              <mxPoint x="270" y="675" />
            </Array>
          </mxGeometry>
        </mxCell>
        <mxCell id="6lOjXnUwQoetxySEbgue-37" value="" style="edgeStyle=none;orthogonalLoop=1;jettySize=auto;html=1;rounded=0;exitX=0.071;exitY=1;exitDx=0;exitDy=0;exitPerimeter=0;entryX=0;entryY=0.5;entryDx=0;entryDy=0;" edge="1" parent="WIyWlLk6GJQsqaUBKTNV-1">
          <mxGeometry width="80" relative="1" as="geometry">
            <mxPoint x="270" y="610" as="sourcePoint" />
            <mxPoint x="400" y="805" as="targetPoint" />
            <Array as="points">
              <mxPoint x="270" y="805" />
            </Array>
          </mxGeometry>
        </mxCell>
        <mxCell id="6lOjXnUwQoetxySEbgue-38" value="" style="edgeStyle=none;orthogonalLoop=1;jettySize=auto;html=1;rounded=0;exitX=0.071;exitY=1;exitDx=0;exitDy=0;exitPerimeter=0;entryX=0;entryY=0.5;entryDx=0;entryDy=0;" edge="1" parent="WIyWlLk6GJQsqaUBKTNV-1">
          <mxGeometry width="80" relative="1" as="geometry">
            <mxPoint x="270" y="730" as="sourcePoint" />
            <mxPoint x="400" y="925" as="targetPoint" />
            <Array as="points">
              <mxPoint x="270" y="925" />
            </Array>
          </mxGeometry>
        </mxCell>
        <mxCell id="6lOjXnUwQoetxySEbgue-39" value="" style="edgeStyle=none;orthogonalLoop=1;jettySize=auto;html=1;rounded=0;exitX=0.071;exitY=1;exitDx=0;exitDy=0;exitPerimeter=0;entryX=0;entryY=0.625;entryDx=0;entryDy=0;entryPerimeter=0;" edge="1" parent="WIyWlLk6GJQsqaUBKTNV-1" target="6lOjXnUwQoetxySEbgue-9">
          <mxGeometry width="80" relative="1" as="geometry">
            <mxPoint x="270" y="270" as="sourcePoint" />
            <mxPoint x="400" y="465" as="targetPoint" />
            <Array as="points">
              <mxPoint x="270" y="330" />
            </Array>
          </mxGeometry>
        </mxCell>
      </root>
    </mxGraphModel>
  </diagram>
</mxfile>
